<svg width="38" height="38" viewBox="0 0 38 38" fill="none" xmlns="http://www.w3.org/2000/svg">
<g filter="url(#filter0_d_284_8)">
<path d="M25.7209 0H12.2787C7.71384 0 4 3.71402 4 8.27892V21.7211C4 26.2862 7.71384 30 12.2787 30H25.7209C30.2862 30 34 26.286 34 21.7211V8.27892C34.0002 3.71402 30.2862 0 25.7209 0ZM31.3384 21.7211C31.3384 24.8185 28.8185 27.3383 25.7211 27.3383H12.2787C9.18153 27.3384 6.66175 24.8185 6.66175 21.7211V8.27892C6.66175 5.18171 9.18153 2.66175 12.2787 2.66175H25.7209C28.8183 2.66175 31.3383 5.18171 31.3383 8.27892V21.7211H31.3384Z" fill="#21243D"/>
<path d="M19 7.27014C14.7375 7.27014 11.2698 10.7379 11.2698 15.0004C11.2698 19.2627 14.7375 22.7303 19 22.7303C23.2625 22.7303 26.7303 19.2627 26.7303 15.0004C26.7303 10.7379 23.2625 7.27014 19 7.27014ZM19 20.0683C16.2054 20.0683 13.9315 17.7949 13.9315 15.0002C13.9315 12.2054 16.2052 9.93171 19 9.93171C21.7948 9.93171 24.0685 12.2054 24.0685 15.0002C24.0685 17.7949 21.7947 20.0683 19 20.0683Z" fill="#21243D"/>
<path d="M27.0545 5.01318C26.5417 5.01318 26.0379 5.2208 25.6757 5.58457C25.3118 5.94657 25.1025 6.45053 25.1025 6.96513C25.1025 7.47814 25.3119 7.98192 25.6757 8.34569C26.0377 8.70769 26.5417 8.91708 27.0545 8.91708C27.5691 8.91708 28.0713 8.70769 28.435 8.34569C28.7988 7.98192 29.0064 7.47796 29.0064 6.96513C29.0064 6.45053 28.7988 5.94657 28.435 5.58457C28.073 5.2208 27.5691 5.01318 27.0545 5.01318Z" fill="#21243D"/>
</g>
<defs>
<filter id="filter0_d_284_8" x="0" y="0" width="38" height="38" filterUnits="userSpaceOnUse" color-interpolation-filters="sRGB">
<feFlood flood-opacity="0" result="BackgroundImageFix"/>
<feColorMatrix in="SourceAlpha" type="matrix" values="0 0 0 0 0 0 0 0 0 0 0 0 0 0 0 0 0 0 127 0" result="hardAlpha"/>
<feOffset dy="4"/>
<feGaussianBlur stdDeviation="2"/>
<feComposite in2="hardAlpha" operator="out"/>
<feColorMatrix type="matrix" values="0 0 0 0 0 0 0 0 0 0 0 0 0 0 0 0 0 0 0.25 0"/>
<feBlend mode="normal" in2="BackgroundImageFix" result="effect1_dropShadow_284_8"/>
<feBlend mode="normal" in="SourceGraphic" in2="effect1_dropShadow_284_8" result="shape"/>
</filter>
</defs>
</svg>
